<svg xmlns="http://www.w3.org/2000/svg" width="24" height="24" viewBox="0 0 24 24"><g fill="none" fill-rule="evenodd"><path fill="#2F6EB5" d="M22 13V7a3 3 0 0 0-3-3H5a3 3 0 0 0-3 3v10a3 3 0 0 0 3 3h14a3 3 0 0 0 3-3v-4Z"/><path fill="#FFF" d="M22 12.37v1.03l-1.3 1.4 1.3 1.4v1.02l-2.27-2.41L22 12.37Zm-6.35-.01 2.3 2.45-2.3 2.46v-1.14h-2.84v-.76h2.78v-1.12H12.8v-.77h2.84v-1.12Zm6.35-.03h-1.72l-1.43 1.58-1.42-1.58h-5.98v4.96h5.93l1.44-1.59 1.44 1.59H22v.7h-2.09l-1.1-1.22L17.7 18l-7.01-.02v-5.63H8.43L11.23 6h2.72l.96 2.17V6h3.36l.58 1.63.58-1.63H22v.69h-2.04l-1.1 3.05-1.09-3.04-2.12-.01v4.9l-2.17-4.9h-1.74l-2.2 4.95h1.51l.42-1h2.24l.42 1h2.86v-3.4l1.26 3.4h1.2l1.24-3.39v3.4l1.31-.01v.7Zm-9.41-4.37.66 1.58h-1.32l.66-1.58Z"/></g></svg>