<?xml version="1.0" encoding="UTF-8"?><svg width="64px" height="64px" id="Layer_2" xmlns="http://www.w3.org/2000/svg" viewBox="0 0 348.5 351.1"><defs><style>.cls-1{fill:#005581;}.cls-2{fill:#ceebe9;}.cls-3{fill:#ab0634;}</style></defs><g id="Layer_1-2"><g><g><path class="cls-2" d="m294.6,175.5c0-28.8-10.2-53.3-30.7-73.9-16.7-16.9-36.6-26.8-59.2-29.7-4.8-.5-9.7-.9-14.5-.9h-.2l-24.5,2.6c-.5.2-1,.4-1.5.5-11.2,2.8-21.6,7.2-31.2,13.8-5,2.1-9.7,4.7-14.3,7.6-.3.2-.7.3-1,.7-1.6.9-2.9,1.9-4.5,3.1-.2,0-.2.2-.3.3-.5.2-1,.5-1.4,1-.5.3-1,.7-1.5,1-3.3,2.8-6.4,5.7-9.5,8.6-5.4,5.2-9.8,10.9-13.6,16.6h0c-4.7,6.9-8.3,14.2-11.1,21.8-1.6,4.7-2.9,9.3-3.8,14.3-1.4,6.7-2.1,13.8-2.1,21.2s.2,4.2.2,6.4c6.7-1.7,13.5-3.6,20-5.9-.3-3.6-.7-7.6-.7-11.4,0-22.5,6.2-42.3,18.6-59.6v-.2c.4-.7.9-1.4,1.2-1.9h0c1.5-1.9,3.1-3.8,4.8-5.7,9.3,52.1,29.2,101,59.2,146.9,3.8,5.7,7.6,11.2,11.6,16.7.7,1,1.4,2.1,2.2,2.9,5.2.9,11.9.9,19.7-.3-.7-.9-1.6-1.7-2.4-2.6-5-5.3-9.8-11-14.5-16.7-6-7.3-11.7-14.7-17.1-22.3,16.2-6.6,31.9-14.8,47.1-24.5-1.9-5.2-4-10.4-6-15.4-15.2,11.6-31.2,21.4-48.2,29.5-7.8-11.9-14.9-24.3-21.4-37.1,9.1-3.6,18-7.8,26.6-12.4,8.6-4.8,17.3-10.2,25.4-15.9-2.9-5.3-5.9-10.5-9.2-15.9-15.2,12.4-31.2,23-47.8,31.8-.4,0-.5.2-.7.3-9.7-20.7-17.6-42.8-23.8-65.9.9-1.2,1.9-2.2,3.1-3.5.2-.3.5-.7.9-.9.5-.3.9-1,1.4-1.4,3.8-4,7.9-7.4,12.1-10.5.5-.3,1-.5,1.7-.7l12.1-3.6c.3-.2.7-.2,1-.4.3,0,.5,0,.9-.2h.3c.7-.2,1.4-.3,2.2-.5,44.7,50.8,75.1,108.1,91,172.1,6-6.2,9.3-11.2,9.7-14.8-5-15.9-10.9-30.7-17.4-44.2,10.7-7.8,21.4-16.4,31.6-25.9.7-.7,3-2.7,3.5-3.4-.3-7.7-1.7-13.9-6.5-21.9-7.6,9-16.6,17.5-24.9,25.2-3.8,3.6-7.8,7.1-11.6,10.4-6.4-11.4-12.9-22.4-20.2-33.2,12.6-9.7,24.5-20.7,36.1-33-4.1-5.9-9.2-10.5-15.4-13.6-10,11.4-20.7,21.9-31.6,31.4-13.3-17.6-27.8-34-43.9-49.2,4.5-.9,8.8-1.4,13.5-1.6h0c2.2-.2,4.3-.2,6.6-.2h0c12.1,0,23.5,1.7,34,5.4.7.2,1.4.5,2.1.7,14,5,26.4,13.1,37.8,24.5,20.4,20.4,30.6,45.1,30.6,73.9s-8.6,49.5-26.1,69.1c-1.6,1.6-2.9,3.1-4.5,4.7-4,4-8.1,7.6-12.4,10.7-11.7,4.7-24.5,7.1-38.3,7.1s-18-1-26.2-3.1c-15-3.8-28.8-10.9-41.1-21.4-2.2-2.1-4.5-4-6.6-6.2-.3-.2-.7-.5-.9-.9,13.1-2.4,25.9-5.7,38.5-10-1.9-3.1-3.8-6.6-5.7-9.8-39.2,16.2-82.5,23.3-130,21.4,24.3,3.3,48.2,4,71,2.1,1,1,1.9,2.2,2.9,3.5,1.6,1.5,2.9,3.1,4.5,4.7,11.9,11.9,25,20.2,39.7,25.2q.2.2.3.2c8.6,2.9,17.8,4.7,27.3,5.2,2.2,0,4.5.2,6.6.2,12.1,0,23.3-1.9,33.8-5.3.2,0,.3,0,.3-.2,8.1-2.8,15.9-6.6,23-11.4,9.5-4,18.1-9.5,26.3-16.4,2.2-2.1,4.5-4,6.5-6.2,20.6-20.4,30.7-44.9,30.7-73.7Z"/><path class="cls-2" d="m75.3,219.7c2.6,7.1,5.9,13.8,10,20.2,7.9-1.5,15.7-3.3,23.5-5.2-8.3-11.2-14-23.5-16.9-36.6,13.8-2.6,27.3-6,40.2-10.5-1.6-3.6-3.1-7.4-4.7-11.1-31.2,14.7-65.1,23.1-101.3,25.7,15.4.5,30.2.2,44.5-1.4.3,1.6.5,3.1.9,4.7.9,4.8,2.2,9.7,3.8,14.2Z"/></g><path class="cls-3" d="m263.3,57c7.7-10.8,29.3-22.1,44.6-27.2l3,2.3-19.5,29-41.8,70.3-26.9,54.7-6.2,14.4c-.8,2.3-1.8,5.1-4.2,7.1-3.3,2.3-11.8,5.2-15.7,6.5-9,3-11,3.7-13.3,3.4-3.3-.3-5.5-2.5-8.4-4.4-9-6.4-26.2-21.2-29.3-30.4-1-3.1,1.3-5.6,4.4-8.4,5-4.7,12.4-10.7,19.8-13.1,5.6-1.9,7.3,1.1,9.9,3.4l8.5,6.8c1.3,1.2,5.6,5.5,8.7,4.5,2.8-.9,4.8-6.3,5.5-8l44.1-85,16.8-25.9Z"/><path class="cls-1" d="m49.4,163.9l.5,31.4h-8.6c0,.1-.1-8.2-.1-8.2l-32.1.5v8.4c.1,0-8.5.1-8.5.1l-.5-31.4h8.6c0-.1.1,8.2.1,8.2l32.1-.5v-8.4c-.1,0,8.5-.1,8.5-.1Z"/><path class="cls-1" d="m61.3,128.2c-3.3,8.1-8.1,13.7-14.2,16.7-6.1,3-12.9,3-20.4,0-7.2-3-12-7.8-14.4-14.3-2.3-6.6-1.8-13.9,1.5-22,.9-2.1,1.8-4,2.7-5.7.9-1.6,1.9-3.2,2.9-4.6.8-1.1,1.8-2.3,2.9-3.5,1.1-1.2,2.1-2.2,2.8-2.9l10.9,4.5-.6,1.4c-.8.4-1.7,1-2.8,1.7-1.1.7-2.2,1.6-3.3,2.6-1.2,1-2.3,2.2-3.4,3.5-1.1,1.3-2,2.8-2.6,4.5-.8,2-1.3,3.9-1.4,5.7-.2,1.8,0,3.8.8,5.8.6,1.8,1.7,3.6,3.3,5.3,1.6,1.7,3.8,3.1,6.5,4.2,2.8,1.2,5.4,1.7,7.7,1.6,2.3,0,4.3-.6,6.1-1.6,1.7-.9,3.2-2.1,4.4-3.7,1.2-1.5,2.2-3.1,2.9-4.9.7-1.8,1.2-3.6,1.4-5.4.2-1.8.2-3.4,0-4.8-.1-1.5-.3-2.8-.6-4-.3-1.2-.5-2.2-.7-3.1l.5-1.2,10.8,4.5c0,1.2,0,2.5,0,4,0,1.5-.2,3-.4,4.6-.3,1.9-.7,3.6-1,5.1-.4,1.6-1.1,3.6-2.2,6.2Z"/><path class="cls-1" d="m73.3,76.7l-6.7-16.5,15.8,8.3-9.1,8.2Zm7.7,18.7l-4-9.8,13.9-12.6,9.4,5,11.1-10-47.8-23.3-11.9,10.8,18.6,49.8,10.8-9.8Z"/><path class="cls-1" d="m166.8,49.8l-13.5,4.1-31.7-26.3,10,32.9-12.8,3.9-14.4-47.2,17.2-5.3,26.2,21.6-8.3-27.1,12.8-3.9,14.4,47.2Z"/><path class="cls-1" d="m230.4,56.2l-13.9-2.1-17.4-37.3-5,34-13.2-2L188,0l17.8,2.6,14.4,30.8,4.1-28,13.2,2-7.2,48.8Z"/><path class="cls-1" d="m60.5,280.7l11.1-3.8-5.8,10.3-5.3-6.5Zm3.6,22.7l15-28.3-4.2-5.1-30.4,9.5,4.2,5.1,6.8-2.3,7.8,9.5-3.5,6.3,4.3,5.2Z"/><path class="cls-1" d="m89.2,305.6c.7-1.3,1.2-3.4-1-5.2-3.8-3-6.9.9-7.8,1.9-2.8,3.5-3.2,6.4-.5,8.5,2.7,2.2,4.9.3,5.9-.5l3.9,4.4c-4.3,3.3-8.5,3.1-12.9-.5-7.1-5.8-3.5-12.6-1.3-15.4,3.1-3.9,8.9-7.2,15.4-1.9,5.5,4.4,4.6,8.8,3.4,11.5l-5.1-2.9Z"/><path class="cls-1" d="m110.2,318.9c.5-1.4.6-3.5-1.9-4.9-4.2-2.4-6.7,2-7.3,3.2-2.2,4-2.1,6.8.9,8.5,3,1.7,4.9-.5,5.7-1.5l4.6,3.7c-3.7,4-7.9,4.4-12.8,1.7-8-4.5-5.6-11.9-3.8-15,2.4-4.3,7.5-8.6,14.9-4.4,6.2,3.5,5.9,7.9,5.3,10.8l-5.5-2Z"/><path class="cls-1" d="m114.8,336.6l7.9-19.9,5.1,2-1.1,2.8h0c1.9-1.4,3.6-2.3,6-1.4,1.2.5,2.5,1.5,3.2,2.4l-3.5,3.9c-.3-.4-1.2-1.4-2.2-1.9-3.5-1.4-5.2,2.5-7.4,8l-2.4,6.1-5.5-2.2Z"/><path class="cls-1" d="m140.5,332.4c.6-2.7,2.8-4.4,5.5-3.8.9.2,4,1.3,3,5.9l-8.5-2.1Zm6.8,7.6c-.5.9-1.7,2.6-4.3,2-3.2-.8-4-3.8-3.4-6.3l14.3,3.6c1.7-6.1,1-12.9-7.1-15-6.8-1.7-11.2,2.9-12.6,8.5-.4,1.7-.6,3.8-.1,6.1,1.1,5.3,6,6.8,7.9,7.2,7.2,1.8,10.2-2.7,10.9-3.8l-5.5-2.3Z"/><path class="cls-1" d="m175,339.5c-.3,3.1-1,4.6-2.5,5.8-1.2.9-2.5,1-3.3.9-2-.2-4.5-1.8-4.1-7,.2-2.4,1.1-6.8,5.5-6.4,2.7.2,4.7,2.4,4.4,6.7Zm4.9,11.6l2.5-29.4-5.9-.5-.9,10.6c-.8-1-2.6-3.2-6.2-3.5-4.9-.4-9.6,2.6-10.3,10.1-.7,7.6,3.5,11.7,8.3,12.1,1.3.1,4.6,0,7.1-3h0s-.3,3.1-.3,3.1l5.5.5Z"/><path class="cls-1" d="m187.2,329.6l5.9-.2.7,21.4-5.9.2-.7-21.4Zm-.3-8.2l5.9-.2.2,5.2-5.9.2-.2-5.2Z"/><path class="cls-1" d="m209.7,332.3l-4,.5,1,8.6c.3,3,.5,4,2.1,3.8.8,0,1.4-.4,2.1-.7h.2c0,0,1,4.2,1,4.2-1.8,1-3.9,1.3-4.5,1.4-1.8.2-4.2-.1-5.2-1.6-.9-1.2-1.1-2.5-1.5-5.7l-1.1-9.3-2.7.3-.5-4.5,2.7-.3-.5-4.2,5.5-4,.9,7.5,4-.5.5,4.5Z"/><path class="cls-1" d="m219.6,334.9c-.7-2.7.4-5.2,3.1-5.9.9-.2,4.2-.7,5.4,3.8l-8.6,2Zm9.6,3.6c0,1-.3,3.1-2.9,3.8-3.3.8-5.3-1.5-5.9-4l14.4-3.4c-1.3-6.2-5.1-11.9-13.2-10-6.8,1.6-8.6,7.7-7.3,13.4.4,1.7,1.2,3.7,2.7,5.5,3.4,4.2,8.5,3.2,10.4,2.8,7.2-1.7,7.8-7,8-8.4l-5.9.4Z"/><path class="cls-1" d="m253.5,325.2c1.2,2.9,1.3,4.5.5,6.3-.6,1.3-1.7,2-2.5,2.3-1.9.8-4.8.6-6.9-4.3-.9-2.2-2.2-6.6,1.8-8.2,2.5-1.1,5.3,0,7,3.9Zm9.7,8l-11.5-27.2-5.4,2.3,4.1,9.8c-1.2-.5-3.8-1.6-7.1-.2-4.5,1.9-7.3,6.8-4.4,13.7,3,7.1,8.6,8.7,13,6.9,1.2-.5,4-2.2,4.9-6h0s1.2,2.9,1.2,2.9l5.1-2.1Z"/><path class="cls-1" d="m273,298.4l3.8-3c3.2-2.6,3.8-3.1,5.2-3.3,1.3-.2,2.4.4,3.1,1.4.5.7,1.6,2.3.3,4.2-.6,1-2.6,2.6-4.1,3.8l-3.6,2.9-4.7-5.9Zm10.6,23l4.8-3.9-7.7-9.6,1-.8c3.2-2.6,3.9-2.4,10.1-.6l7.5,2.2,5.8-4.6-6.5-2.2c-5.4-1.8-7-1.8-9.9-1.3h0c.9-.9,1.6-1.9,2.1-2.9,1.6-2.8,1.1-6.1-.9-8.6-1.8-2.3-5.1-4-8.6-2.7-.9.4-2.4,1-5.9,3.8l-10.2,8.2,18.5,23Z"/><path class="cls-1" d="m303.1,287.1c-2.2-1.8-2.8-4.4-1-6.6.6-.7,3-3.1,6.6-.2l-5.6,6.8Zm9.8-2.9c.6.9,1.7,2.7,0,4.8-2.1,2.6-5.1,2-7.1.4l9.4-11.4c-4.8-4.1-11.2-6.5-16.6,0-4.5,5.4-2.3,11.4,2.2,15.1,1.4,1.1,3.2,2.2,5.4,2.8,5.3,1.3,8.7-2.5,10-4,4.7-5.7,2-10.3,1.3-11.5l-4.5,3.9Z"/><path class="cls-1" d="m319.3,267.3c-1.4-.8-5.5-3.4-3.3-7.3,1.9-3.6,5.7-2.7,8.1-1.4,4.9,2.6,3.9,6.2,3.2,7.6-1.8,3.3-5.4,2.5-8,1.1Zm8.6,10.6c5.2,3.1,8.9-1.2,11.3-5.7,4.6-8.5.7-11.6-4.6-14.4l-16.9-9.1-2.6,4.8,2.6,1.4h0c-1.1.2-4.3.7-6.2,4.4-1.7,3.2-2.5,9.3,5.3,13.5,5.3,2.9,11.2,2,13.9-3,1.3-2.3,1.2-5.1,0-7.4h0c0,0,2.8,1.4,2.8,1.4,2.2,1.2,4.1,2.2,1.8,6.5-.7,1.3-1.4,1.9-1.6,2-1,.5-1.7,0-1.9,0l-3.9,5.6Z"/><path class="cls-1" d="m319.5,243.3l1.9-5.6,20.2,7-1.9,5.6-20.2-7Zm-7.7-2.7l1.9-5.6,5,1.7-1.9,5.6-5-1.7Z"/><path class="cls-1" d="m338.3,230.3c2.9-.2,3.9-2.2,4.2-4.1,0-.5.7-4.2-1.6-4.6-1.2-.2-1.7.7-2.2,2-2.6,6.4-4.5,11-9.5,10.2-4.8-.9-5.6-5.8-4.8-10.4.9-5.2,2.9-8.2,7.3-8.7v5.7c-2.6.3-3.1,2.6-3.3,3.6-.2,1-.7,4,1,4.3.6.1,1.1-.3,1.5-.9.6-1,1.6-3.3,2.2-4.7,1.6-3.7,3.5-7.9,8.1-7.1,3.3.6,6.6,4,5.3,11.2-.4,2.1-1.4,5.6-4,7.7-1.7,1.4-3.5,1.6-4.4,1.6l.2-5.9Z"/><path class="cls-1" d="m331.2,198.6v4s8.6,0,8.6,0c3.1,0,4,0,4.1-1.6,0-.8-.2-1.5-.5-2.2v-.2s4.3-.5,4.3-.5c.8,1.9.8,4,.8,4.6,0,1.8-.6,4.1-2.2,5-1.3.7-2.6.8-5.9.8h-9.3c0-.1,0,2.6,0,2.6h-4.5s0-2.8,0-2.8h-4.2s-3.3-6-3.3-6h7.6c0,0,0-3.9,0-3.9h4.5Z"/><path class="cls-1" d="m347.6,192.1l-21.2,2.6-.7-5.4,3-.4h0c-2.2-1.1-3.8-2.1-4.1-4.6-.2-1.3.1-2.9.5-4l5.1,1.2c-.2.5-.7,1.7-.6,2.8.5,3.8,4.7,3.4,10.6,2.7l6.5-.8.7,5.8Z"/><path class="cls-1" d="m332.2,162.9c1.9-.6,3.2-1,4.5,0,1,.6,1.9,1.6,2.3,2.9.7,2.2-.7,3.6-1.8,4-1.9.6-3.1-1.5-3.7-2.5-.2-.2-.9-1.5-1-1.8-.7-1.2-1-1.7-1.4-2.2l1.1-.3Zm-3.1,9.2c-1.1,0-2.9-.1-3.7-2.9-1.2-3.9.3-4.3,1.7-4.7l.6-.2c.8,1,1.5,2.1,3,5,1.5,2.8,3.9,7.3,8.9,5.7,3.5-1.1,5.2-4.7,3.8-8.9-1.1-3.4-3.4-5-4.8-5.8l1-.7c.5-.3.8-.6,1-.8l-1.7-5.5c-1.4,1.3-2.3,1.9-4.9,2.9-1.1.4-6.7,2-7.9,2.4-3.7,1.1-7.7,2.4-4.9,11.4,2,6.3,5.1,7.5,8.6,7.4l-.7-5.4Z"/><path class="cls-1" d="m335.5,146.4l-19,9.7-2.5-4.9,2.7-1.4h0c-2.4-.2-4.3-.7-5.4-3-.6-1.1-.9-2.7-.8-3.9l5.2-.6c0,.6,0,1.9.4,2.9,1.7,3.4,5.6,1.6,10.9-1.1l5.9-3,2.7,5.2Z"/></g></g></svg>