<svg xmlns="http://www.w3.org/2000/svg" width="24" height="24" viewBox="0 0 24 24"><g fill="none" fill-rule="evenodd"><path fill="#000" d="M22 13V7a3 3 0 0 0-3-3H5a3 3 0 0 0-3 3v10a3 3 0 0 0 3 3h14a3 3 0 0 0 3-3v-4Z"/><path fill="#F16122" d="M9.84 15.93h4.32V8.07H9.84z"/><path fill="#E91D25" d="M10.11 12A5 5 0 0 1 12 8.07 4.89 4.89 0 0 0 8.94 7 4.97 4.97 0 0 0 4 12c0 2.76 2.21 5 4.94 5 1.16 0 2.22-.4 3.06-1.07A5.01 5.01 0 0 1 10.11 12"/><path fill="#F79E1B" d="M20 12c0 2.76-2.21 5-4.94 5-1.16 0-2.22-.4-3.06-1.07a5.01 5.01 0 0 0 0-7.86A4.89 4.89 0 0 1 15.06 7 4.97 4.97 0 0 1 20 12"/></g></svg>