<svg xmlns="http://www.w3.org/2000/svg" width="24" height="24" viewBox="0 0 24 24"><g fill="none" fill-rule="evenodd"><path fill="#E7A83A" d="M2 17a3 3 0 0 0 3 3h14a3 3 0 0 0 3-3H2Z"/><path fill="#3A6FA3" d="M22 7a3 3 0 0 0-3-3H5a3 3 0 0 0-3 3h20Z"/><path fill="#F6F6F6" d="M2 17h20V7H2z"/><path fill="#1D5B99" d="M13.08 14.6c-.94 0-1.57-.3-2.02-.57l.64-.97c.4.22.72.48 1.44.48.23 0 .46-.06.59-.28.18-.32-.05-.5-.57-.8l-.26-.16c-.77-.53-1.1-1.03-.74-1.9.23-.57.85-1 1.86-1 .7 0 1.36.3 1.74.6l-.73.86c-.37-.3-.68-.45-1.04-.45-.28 0-.5.1-.57.25-.14.28.05.47.45.72l.31.2c.94.59 1.16 1.21.93 1.79-.4 1-1.2 1.22-2.03 1.22Zm5.4-3.06c0-.36-.02-.86 0-1.16h-.02c-.08.24-.43.98-.58 1.34l-.5 1.09h1.18l-.07-1.27Zm.16 2.91-.04-.73h-1.67l-.34.73h-1.45l2.63-4.93h1.78l.45 4.93h-1.36ZM8.24 9.52l-1.2 2.09c-.3.55-.48.83-.57 1.17h-.02c.02-.44-.04-.98-.04-1.28l-.14-1.98H4.02L4 9.65c.58 0 .92.29 1.02.88l.43 3.92h1.39l2.8-4.93h-1.4Zm.6 4.93 1.5-4.94h1.34l-1.5 4.94H8.84Z"/></g></svg>